<?xml version="1.0" standalone="no"?><!DOCTYPE svg PUBLIC "-//W3C//DTD SVG 1.1//EN" "http://www.w3.org/Graphics/SVG/1.1/DTD/svg11.dtd"><svg t="1524894909338" class="icon" style="" viewBox="0 0 1024 1024" version="1.1" xmlns="http://www.w3.org/2000/svg" p-id="6039" xmlns:xlink="http://www.w3.org/1999/xlink" width="200" height="200"><defs><style type="text/css"></style></defs><path d="M834.4875 499.375c-35.3625 0-65.675-17.675-80.825-45.4625-15.15 27.7875-45.4625 45.4625-80.825 45.4625-35.3625 0-65.675-17.675-80.825-45.4625-15.15 27.7875-45.4625 45.4625-80.825 45.4625-35.3625 0-65.675-17.675-80.825-45.4625-15.15 27.7875-45.4625 45.4625-80.825 45.4625s-65.675-17.675-80.825-45.4625c-15.15 27.7875-45.4625 45.4625-80.825 45.4625-30.3125 0-55.575-12.625-73.25-37.8875C96.925 438.75 94.4 405.9125 107.025 378.125l98.5125-234.9125c12.6375-35.3625 45.4625-55.575 80.8375-55.575l454.6625 0c35.3625 0 68.2 22.725 80.825 55.575l95.9875 234.9125c12.625 27.7875 7.575 60.625-10.1 83.35C892.5875 484.2125 864.8 499.375 834.4875 499.375L834.4875 499.375zM753.6625 368.025c20.2125 0 37.8875 17.675 37.8875 37.8875 0 22.7375 20.2125 42.9375 42.9375 42.9375 12.625 0 25.2625-5.05 35.3625-17.675 7.575-7.575 7.575-22.7375 2.525-32.8375l-95.9875-234.9125c-7.575-15.15-20.2125-25.2625-35.3625-25.2625L286.375 138.1625c-15.15 0-30.3125 10.1-35.3625 22.725L152.5 395.8125c-5.05 12.625-5.05 25.2625 2.525 32.8375 7.575 12.625 20.2125 20.2 35.3625 20.2 22.7375 0 42.9375-20.2 42.9375-42.9375 0-20.2125 17.6875-37.8875 37.8875-37.8875 20.2125 0 37.8875 17.675 37.8875 37.8875 0 22.7375 20.2125 42.9375 42.9375 42.9375 22.7375 0 42.9375-20.2 42.9375-42.9375 0-20.2125 17.6875-37.8875 37.8875-37.8875s37.8875 17.675 37.8875 37.8875c0 22.7375 20.2125 42.9375 42.9375 42.9375 22.725 0 42.9375-20.2 42.9375-42.9375 0-20.2125 17.675-37.8875 37.8875-37.8875 20.2125 0 37.8875 17.675 37.8875 37.8875 0 22.7375 20.2125 42.9375 42.9375 42.9375 22.725 0 42.9375-20.2 42.9375-42.9375C715.775 383.175 733.45 368.025 753.6625 368.025L753.6625 368.025zM566.75 933.825c-12.625 0-25.2625-5.05-35.3625-15.1625-10.1-10.1-15.15-22.725-15.15-35.3625L518.75 714.075l-103.5625 0-2.525 171.7625c0 27.7875-22.725 50.5125-50.5125 50.5125l-70.725 0c-55.575 0-101.0375-45.4625-101.0375-101.0375L190.3875 570.1c0-15.15 10.1-25.2625 25.2625-25.2625 15.15 0 25.2625 10.1 25.2625 25.2625l0 262.7c0 27.7875 22.725 50.5125 50.5125 50.5125l70.725 0 2.525-171.7625c0-27.7875 22.725-50.5125 50.5125-50.5125L518.75 661.0375c12.625 0 25.2625 5.05 35.3625 15.15 10.1 10.1 15.15 22.7375 15.15 35.3625L566.75 880.7875l166.7125 0c27.7875 0 50.5125-22.7375 50.5125-50.5125L783.975 570.1c0-15.15 10.1-25.2625 25.2625-25.2625s25.2625 10.1 25.2625 25.2625l0 262.7c0 55.575-45.4625 101.0375-101.0375 101.0375L566.75 933.8375 566.75 933.825z" p-id="6040"></path></svg>